<?xml version="1.0" encoding="UTF-8"?>
<svg id="Layer_2" data-name="Layer 2" xmlns="http://www.w3.org/2000/svg" viewBox="0 0 23 20.4">
  <defs>
    <style>
      .cls-1 {
        fill: #f8faf0;
        stroke-width: 0px;
      }
    </style>
  </defs>
  <g id="Layer_1-2" data-name="Layer 1">
    <path class="cls-1" d="m13.86,20.4c-1.55,0-3.11,0-4.66,0-.34,0-.7-.06-1.02-.16-1.12-.33-1.79-1.18-1.8-2.35-.02-2.56-.02-5.12,0-7.67,0-.57.3-1,.83-1.2,2.38-.94,3.57-2.79,4.07-5.19.22-1.04.26-2.09.21-3.14-.02-.48.13-.65.62-.67.61-.03,1.2,0,1.78.23.84.32,1.28.93,1.29,1.83,0,1.49,0,2.97,0,4.46,0,.52.16.67.67.67,1.52,0,3.05,0,4.57,0,1.67,0,2.86,1.41,2.53,3.03-.05.25-.25.47-.4.69-.15.23-.37.42-.46.66-.08.21-.06.48,0,.71.3,1.41.35,1.1-.38,2.28-.29.46-.36.91-.1,1.4.16.31.1.64-.06.95-.12.23-.28.43-.35.67-.09.27-.15.56-.13.84.03.42-.08.76-.36,1.06-.57.61-1.29.9-2.12.9-1.57.01-3.14,0-4.71,0Z"/>
    <path class="cls-1" d="m4.71,14.47c0,1.53,0,3.06,0,4.6,0,.82-.47,1.29-1.29,1.3-.71,0-1.43,0-2.14,0-.79,0-1.27-.47-1.27-1.26,0-3.09,0-6.19,0-9.28,0-.8.48-1.27,1.29-1.27.72,0,1.45,0,2.17,0,.73,0,1.24.51,1.25,1.24,0,1.56,0,3.12,0,4.68Z"/>
  </g>
</svg>